<svg width="172" height="48" viewBox="0 0 172 48" fill="none" xmlns="http://www.w3.org/2000/svg">
<path fill-rule="evenodd" clip-rule="evenodd" d="M17.5608 12.2162H0V0H17.5608C30.6328 0 41.2297 10.5969 41.2297 23.6689C41.2297 36.7409 30.6328 47.3378 17.5608 47.3378H12.0635V35.1216H17.5608C23.886 35.1216 29.0135 29.9941 29.0135 23.6689C29.0135 17.3438 23.886 12.2162 17.5608 12.2162Z" fill="#6E92FF"/>
<path d="M0 23.0972H12.2162V35.3134H0V23.0972Z" fill="#71D4EB"/>
<path d="M59.4526 35.0328V10.5066H67.7215C70.3376 10.5066 72.6034 11.0322 74.5187 12.0833C76.4341 13.1344 77.9174 14.5826 78.9685 16.4279C80.043 18.2732 80.5802 20.3872 80.5802 22.7697C80.5802 25.1523 80.043 27.2662 78.9685 29.1115C77.9174 30.9568 76.4341 32.405 74.5187 33.4561C72.6034 34.5073 70.3376 35.0328 67.7215 35.0328H59.4526ZM64.463 30.6181H67.7215C69.2398 30.6181 70.5829 30.3028 71.7508 29.6721C72.942 29.0414 73.8764 28.1421 74.5538 26.9742C75.2312 25.7829 75.5699 24.3814 75.5699 22.7697C75.5699 21.1346 75.2312 19.7331 74.5538 18.5652C73.8764 17.3973 72.942 16.498 71.7508 15.8673C70.5829 15.2367 69.2398 14.9213 67.7215 14.9213H64.463V30.6181Z" fill="white"/>
<path d="M83.9131 35.0328V17.1637H88.7483V35.0328H83.9131ZM86.3307 15.0264C85.5132 15.0264 84.8008 14.7345 84.1934 14.1505C83.6095 13.5432 83.3175 12.8308 83.3175 12.0132C83.3175 11.1957 83.6095 10.4949 84.1934 9.91097C84.8008 9.30366 85.5132 9 86.3307 9C87.1483 9 87.849 9.30366 88.433 9.91097C89.0403 10.4949 89.344 11.1957 89.344 12.0132C89.344 12.8308 89.0403 13.5432 88.433 14.1505C87.849 14.7345 87.1483 15.0264 86.3307 15.0264Z" fill="white"/>
<path d="M102.259 35.0328C100.227 35.0328 98.4514 34.6474 96.9331 33.8766C95.4382 33.0824 94.2703 32.0079 93.4294 30.6531C92.6118 29.2984 92.2031 27.7801 92.2031 26.0983C92.2031 24.2062 92.5885 22.5595 93.3593 21.158C94.1301 19.7565 95.1812 18.6703 96.5127 17.8995C97.8441 17.1287 99.3507 16.7433 101.032 16.7433C103.041 16.7433 104.665 17.1637 105.903 18.0046C107.164 18.8455 108.087 19.9784 108.671 21.4033C109.255 22.8047 109.547 24.3698 109.547 26.0983C109.547 26.3319 109.535 26.6122 109.512 26.9392C109.488 27.2428 109.453 27.4764 109.406 27.6399H97.3185C97.5755 28.7144 98.1477 29.5319 99.0354 30.0925C99.9463 30.6531 101.044 30.9334 102.329 30.9334H107.304V35.0328H102.259ZM97.2835 24.4165H104.746C104.653 23.2719 104.291 22.3726 103.66 21.7186C103.053 21.0412 102.189 20.7025 101.068 20.7025C99.8763 20.7025 98.977 21.0879 98.3696 21.8587C97.7623 22.6062 97.4003 23.4588 97.2835 24.4165Z" fill="white"/>
<path d="M112.929 35.0328V24.7668C112.929 23.2953 113.267 21.9522 113.945 20.7375C114.645 19.5229 115.65 18.5535 116.958 17.8294C118.266 17.1053 119.831 16.7433 121.653 16.7433C123.498 16.7433 125.063 17.1053 126.348 17.8294C127.656 18.5535 128.649 19.5229 129.326 20.7375C130.027 21.9522 130.377 23.2953 130.377 24.7668V35.0328H125.577V24.7668C125.577 23.669 125.192 22.7464 124.421 21.9989C123.673 21.2281 122.751 20.8427 121.653 20.8427C120.578 20.8427 119.656 21.2281 118.885 21.9989C118.114 22.7464 117.729 23.669 117.729 24.7668V35.0328H112.929Z" fill="white"/>
<path d="M135 35.0328V30.9334H143.724C144.144 30.9334 144.495 30.805 144.775 30.548C145.055 30.2911 145.196 29.9641 145.196 29.567C145.196 29.1699 145.055 28.8312 144.775 28.5509C144.495 28.2706 144.144 28.1304 143.724 28.1304H140.36C139.216 28.1304 138.176 27.9553 137.242 27.6049C136.331 27.2311 135.595 26.6472 135.035 25.853C134.497 25.0355 134.229 23.9727 134.229 22.6646C134.229 21.6602 134.474 20.7492 134.965 19.9317C135.478 19.0908 136.156 18.4251 136.997 17.9345C137.861 17.4207 138.807 17.1637 139.835 17.1637H148.209V21.2631H140.29C139.94 21.2631 139.625 21.3799 139.344 21.6135C139.087 21.8471 138.959 22.1507 138.959 22.5245C138.959 22.8982 139.087 23.2135 139.344 23.4705C139.601 23.704 139.917 23.8208 140.29 23.8208H143.654C145.593 23.8208 147.123 24.2646 148.244 25.1523C149.365 26.0165 149.926 27.4414 149.926 29.4268C149.926 30.4546 149.669 31.4006 149.155 32.2649C148.641 33.1058 147.952 33.7831 147.088 34.297C146.223 34.7876 145.254 35.0328 144.179 35.0328H135Z" fill="white"/>
<path d="M160.057 42.1454V35.208C158.025 34.7876 156.448 33.8532 155.327 32.405C154.229 30.9568 153.68 29.2984 153.68 27.4297V17.1637H158.48V27.4297C158.48 28.5042 158.866 29.4268 159.636 30.1976C160.407 30.9685 161.33 31.3539 162.404 31.3539C163.502 31.3539 164.425 30.9685 165.172 30.1976C165.943 29.4268 166.329 28.5042 166.329 27.4297V17.1637H171.129V27.4297C171.129 29.275 170.58 30.9218 169.482 32.37C168.407 33.7948 166.866 34.7292 164.857 35.173V42.1454H160.057Z" fill="white"/>
</svg>
