<svg id="eDM2da3VXPR1" xmlns="http://www.w3.org/2000/svg" xmlns:xlink="http://www.w3.org/1999/xlink" viewBox="0 0 847 741" shape-rendering="geometricPrecision" text-rendering="geometricPrecision"><style><![CDATA[#eDM2da3VXPR8_tr {animation: eDM2da3VXPR8_tr__tr 3000ms linear infinite normal forwards}@keyframes eDM2da3VXPR8_tr__tr { 0% {transform: translate(290.999504px,136.283695px) rotate(420deg)} 100% {transform: translate(290.999504px,136.283695px) rotate(736deg)}} #eDM2da3VXPR9_tr {animation: eDM2da3VXPR9_tr__tr 3000ms linear infinite normal forwards}@keyframes eDM2da3VXPR9_tr__tr { 0% {transform: translate(176.217995px,64.406998px) rotate(719deg)} 100% {transform: translate(176.217995px,64.406998px) rotate(360deg)}}]]></style><path id="eDM2da3VXPR2" d="M824.993000,737.094000C824.993000,737.094000,880.793000,650.211000,810.532000,605.925000C740.270000,561.639000,715.416000,445.996000,774.681000,372.986000C833.946000,299.976000,668.356000,136.288000,399.976000,94.784100C122.189000,51.822500,3.819430,209.200000,74.578500,367.903000C145.338000,526.605000,59.860000,527.494000,26.034900,574.677000C-40.442700,667.399000,41.366300,731.664000,41.366300,731.664000L824.993000,737.094000Z" transform="matrix(1 0 0 1 -0.32249689000002 -0.66825808500005)" fill="rgb(230,238,252)" stroke="none" stroke-width="1"/><path id="eDM2da3VXPR3" d="M594.452000,625.895000L488.945000,625.895000L506.612000,540.167000L612.120000,540.167000L594.452000,625.895000Z" fill="rgb(59,45,99)" stroke="none" stroke-width="1"/><path id="eDM2da3VXPR4" d="M597.126000,630.721000L594.452000,625.895000L612.120000,540.167000L614.794000,544.993000L597.126000,630.721000Z" fill="rgb(34,25,66)" stroke="none" stroke-width="1"/><path id="eDM2da3VXPR5" d="M494.390000,621.451000L510.227000,544.611000L606.675000,544.611000L590.837000,621.451000L494.390000,621.451000Z" fill="rgb(255,255,255)" stroke="none" stroke-width="1"/><path id="eDM2da3VXPR6" d="M476.447000,625.895000L432.291000,625.895000L428.418000,630.721000L516.534000,630.721000L519.874000,625.895000L476.447000,625.895000Z" fill="rgb(77,62,132)" stroke="none" stroke-width="1"/><path id="eDM2da3VXPR7" d="M519.838000,625.895000L594.452000,625.895000L597.126000,630.721000L516.498000,630.721000L519.838000,625.895000Z" fill="rgb(34,25,66)" stroke="none" stroke-width="1"/><g id="eDM2da3VXPR8_tr" transform="translate(290.999504,136.283695) rotate(420)"><path id="eDM2da3VXPR8" d="M370.592000,144.269000L370.592000,128.307000L351.504000,123.055000C349.923000,115.776000,347.062000,108.951000,343.136000,102.872000C343.136000,102.863000,343.127000,102.863000,343.127000,102.854000L352.925000,85.612300L341.644000,74.325300L324.412000,84.128100C324.403000,84.128100,324.403000,84.119200,324.394000,84.110300C318.318000,80.182100,311.496000,77.320400,304.221000,75.738400L298.972000,56.639400L283.019000,56.639400L277.769000,75.729500C270.485000,77.311500,263.672000,80.173200,257.596000,84.128100L240.355000,74.316400L229.074000,85.603400L238.881000,102.854000C238.881000,102.854000,238.881000,102.854000,238.872000,102.863000C234.946000,108.942000,232.086000,115.767000,230.504000,123.046000L211.407000,128.298000L211.407000,144.260000L230.504000,149.513000C232.086000,156.791000,234.946000,163.608000,238.890000,169.687000L229.074000,186.955000L240.355000,198.242000L257.605000,188.431000L257.614000,188.439000C263.699000,192.368000,270.485000,195.238000,277.769000,196.820000L283.019000,215.928000L298.972000,215.928000L304.221000,196.811000C311.496000,195.229000,318.309000,192.368000,324.385000,188.439000C324.385000,188.439000,324.385000,188.439000,324.394000,188.439000L341.635000,198.251000L352.916000,186.964000L343.110000,169.705000C347.062000,163.626000,349.923000,156.800000,351.504000,149.522000L370.592000,144.269000ZM291.004000,173.837000C270.272000,173.837000,253.466000,157.023000,253.466000,136.279000C253.466000,115.536000,270.272000,98.747900,291.004000,98.747900C311.736000,98.747900,328.542000,115.536000,328.542000,136.279000C328.542000,157.023000,311.736000,173.837000,291.004000,173.837000Z" transform="translate(-290.999504,-136.283695)" fill="rgb(59,45,99)" stroke="none" stroke-width="1"/></g><g id="eDM2da3VXPR9_tr" transform="translate(176.217995,64.406998) rotate(719)"><path id="eDM2da3VXPR9" d="M240.586000,70.868100L240.586000,57.954700L225.148000,53.706500C223.869000,47.814200,221.551000,42.304000,218.380000,37.380400L218.371000,37.371500L226.294000,23.427200L217.172000,14.299800L203.235000,22.227400C203.226000,22.227400,203.226000,22.218500,203.217000,22.218500C198.296000,19.045700,192.789000,16.726100,186.899000,15.446300L182.662000,0L169.765000,0L165.519000,15.437400C159.630000,16.717200,154.123000,19.036800,149.202000,22.227400L135.256000,14.290900L126.133000,23.418300L134.066000,37.371500C134.066000,37.371500,134.066000,37.371500,134.066000,37.380400C130.894000,42.304000,128.576000,47.814200,127.297000,53.706500L111.850000,57.954700L111.850000,70.859200L127.297000,75.107400C128.576000,80.990800,130.886000,86.501000,134.083000,91.424600L126.151000,105.387000L135.274000,114.514000L149.228000,106.578000C149.228000,106.578000,149.237000,106.578000,149.237000,106.587000C154.158000,109.768000,159.648000,112.079000,165.537000,113.359000L169.783000,128.814000L182.680000,128.814000L186.926000,113.350000C192.806000,112.070000,198.323000,109.750000,203.235000,106.578000C203.235000,106.578000,203.235000,106.578000,203.244000,106.578000L217.189000,114.514000L226.312000,105.387000L218.380000,91.433500C221.577000,86.509900,223.887000,80.999700,225.166000,75.107400L240.586000,70.868100ZM176.214000,94.784100C159.443000,94.784100,145.853000,81.186300,145.853000,64.406900C145.853000,47.627500,159.443000,34.056500,176.214000,34.056500C192.984000,34.056500,206.575000,47.636400,206.575000,64.406900C206.575000,81.186300,192.984000,94.784100,176.214000,94.784100Z" transform="translate(-176.217995,-64.406998)" fill="rgb(110,146,255)" stroke="none" stroke-width="1"/></g><path id="eDM2da3VXPR10" d="M738.938000,135.311000L288.908000,135.311000L288.908000,460.758000L738.938000,460.758000L738.938000,135.311000Z" fill="rgb(247,250,255)" stroke="none" stroke-width="1"/><path id="eDM2da3VXPR11" d="M738.938000,135.311000L288.908000,135.311000L288.908000,178.308000L738.938000,178.308000L738.938000,135.311000Z" fill="rgb(110,146,255)" stroke="none" stroke-width="1"/><path id="eDM2da3VXPR12" d="M709.030000,163.448000C712.694000,163.448000,715.665000,160.476000,715.665000,156.809000C715.665000,153.142000,712.694000,150.170000,709.030000,150.170000C705.365000,150.170000,702.395000,153.142000,702.395000,156.809000C702.395000,160.476000,705.365000,163.448000,709.030000,163.448000Z" fill="rgb(255,255,255)" stroke="none" stroke-width="1"/><path id="eDM2da3VXPR13" d="M683.607000,163.448000C687.272000,163.448000,690.243000,160.476000,690.243000,156.809000C690.243000,153.142000,687.272000,150.170000,683.607000,150.170000C679.943000,150.170000,676.972000,153.142000,676.972000,156.809000C676.972000,160.476000,679.943000,163.448000,683.607000,163.448000Z" fill="rgb(255,255,255)" stroke="none" stroke-width="1"/><path id="eDM2da3VXPR14" d="M658.194000,163.448000C661.859000,163.448000,664.830000,160.476000,664.830000,156.809000C664.830000,153.142000,661.859000,150.170000,658.194000,150.170000C654.530000,150.170000,651.559000,153.142000,651.559000,156.809000C651.559000,160.476000,654.530000,163.448000,658.194000,163.448000Z" fill="rgb(255,255,255)" stroke="none" stroke-width="1"/><path id="eDM2da3VXPR15" d="M629.255000,135.311000L738.929000,135.311000L738.929000,226.611000" fill="none" stroke="rgb(0,0,0)" stroke-width="1" stroke-miterlimit="10"/><path id="eDM2da3VXPR16" d="M680.517000,231.223000L541.468000,231.223000L541.468000,241.631000L680.517000,241.631000L680.517000,231.223000Z" fill="rgb(110,146,255)" stroke="none" stroke-width="1"/><path id="eDM2da3VXPR17" d="M680.517000,259.574000L486.884000,259.574000L486.884000,269.981000L680.517000,269.981000L680.517000,259.574000Z" opacity="0.5" fill="rgb(110,146,255)" stroke="none" stroke-width="1"/><path id="eDM2da3VXPR18" d="M680.517000,287.934000L486.884000,287.934000L486.884000,298.341000L680.517000,298.341000L680.517000,287.934000Z" fill="rgb(110,146,255)" stroke="none" stroke-width="1"/><path id="eDM2da3VXPR19" d="M680.517000,316.285000L486.884000,316.285000L486.884000,326.692000L680.517000,326.692000L680.517000,316.285000Z" opacity="0.5" fill="rgb(110,146,255)" stroke="none" stroke-width="1"/><path id="eDM2da3VXPR20" d="M680.517000,344.635000L486.884000,344.635000L486.884000,355.043000L680.517000,355.043000L680.517000,344.635000Z" fill="rgb(110,146,255)" stroke="none" stroke-width="1"/><path id="eDM2da3VXPR21" d="M680.517000,372.986000L486.884000,372.986000L486.884000,383.393000L680.517000,383.393000L680.517000,372.986000Z" opacity="0.5" fill="rgb(110,146,255)" stroke="none" stroke-width="1"/><path id="eDM2da3VXPR22" d="M325.362000,460.758000L676.706000,460.758000" fill="none" stroke="rgb(0,0,0)" stroke-width="1" stroke-miterlimit="10"/><path id="eDM2da3VXPR23" d="M288.908000,460.758000L288.908000,404.510000" fill="none" stroke="rgb(0,0,0)" stroke-width="1" stroke-miterlimit="10"/><path id="eDM2da3VXPR24" d="M107,650.664000C107,650.664000,146.652000,622.606000,149.166000,574.117000C149.166000,574.117000,127.190000,571.557000,108.466000,603.712000C89.741200,635.866000,93.569600,650.664000,93.569600,650.664000L107,650.664000Z" fill="rgb(255,207,86)" stroke="none" stroke-width="1"/><path id="eDM2da3VXPR25" d="M101.129000,643.803000C101.129000,643.803000,128.398000,610.635000,136.375000,589.438000" fill="none" stroke="rgb(0,0,0)" stroke-width="1" stroke-miterlimit="10"/><path id="eDM2da3VXPR26" d="M90.220800,650.664000C90.220800,650.664000,91.553200,554.387000,45.461200,523.325000C45.461200,523.325000,33.363000,534.648000,40.495800,580.213000C47.628500,625.779000,68.920200,650.673000,68.920200,650.673000L90.220800,650.673000L90.220800,650.664000Z" fill="rgb(255,207,86)" stroke="none" stroke-width="1"/><path id="eDM2da3VXPR27" d="M51.830100,547.668000C51.830100,547.668000,60.428500,569.291000,69.240000,601.819000C78.051600,634.355000,78.682300,643.803000,78.682300,643.803000" fill="none" stroke="rgb(0,0,0)" stroke-width="1" stroke-miterlimit="10"/><path id="eDM2da3VXPR28" d="M45.461200,597.348000C45.461200,597.348000,65.598200,621.140000,72.455600,650.664000L56.022700,650.664000C56.022700,650.664000,31.373400,627.539000,28.957300,620.820000L45.461200,597.348000Z" fill="rgb(0,0,0)" stroke="none" stroke-width="1"/><path id="eDM2da3VXPR29" d="M114.835000,650.664000L48.401400,650.664000L48.401400,733.121000L114.835000,733.121000L114.835000,650.664000Z" fill="rgb(216,30,91)" stroke="none" stroke-width="1"/><path id="eDM2da3VXPR30" d="M37.662200,612.448000C37.662200,612.448000,58.225500,639.715000,62.311500,646.122000" fill="none" stroke="rgb(0,0,0)" stroke-width="1" stroke-miterlimit="10"/><path id="eDM2da3VXPR31" d="M45.461200,597.348000C42.005900,595.020000,37.324700,592.345000,31.471100,590.176000C24.782400,587.697000,18.777800,586.692000,14.265400,586.292000C11.849300,591.660000,9.850720,599.259000,7.869900,608.351000C5.320580,620.056000,4.059250,633.102000,9.237820,638.488000C22.943700,640.310000,40.007300,618.900000,45.461200,597.348000Z" fill="rgb(82,210,171)" stroke="none" stroke-width="1"/><path id="eDM2da3VXPR32" d="M31.480000,590.176000C31.480000,590.176000,19.204200,604.663000,13.439300,631.636000" fill="none" stroke="rgb(0,0,0)" stroke-width="1" stroke-miterlimit="10"/><path id="eDM2da3VXPR33" d="M101.129000,650.664000C101.129000,650.664000,134.696000,586.994000,117.348000,528.222000C117.348000,528.222000,99.023500,542.842000,90.220800,578.969000C77.820600,629.814000,83.221300,650.673000,83.221300,650.673000L101.129000,650.673000L101.129000,650.664000Z" fill="rgb(82,210,171)" stroke="none" stroke-width="1"/><path id="eDM2da3VXPR34" d="M113.085000,554.387000C113.085000,554.387000,98.401700,615.052000,94.626600,642.336000" fill="none" stroke="rgb(0,0,0)" stroke-width="1" stroke-miterlimit="10"/><path id="eDM2da3VXPR35" d="M448.051000,190.741000L260.121000,190.741000L260.121000,311.388000L448.051000,311.388000L448.051000,190.741000Z" fill="rgb(113,212,235)" stroke="none" stroke-width="1"/><path id="eDM2da3VXPR36" d="M399.976000,213.324000L359.987000,213.324000L359.987000,221.163000L399.976000,221.163000L399.976000,213.324000Z" fill="rgb(255,255,255)" stroke="none" stroke-width="1"/><path id="eDM2da3VXPR37" d="M427.779000,230.228000L359.987000,230.228000L359.987000,238.067000L427.779000,238.067000L427.779000,230.228000Z" opacity="0.5" fill="rgb(255,255,255)" stroke="none" stroke-width="1"/><path id="eDM2da3VXPR38" d="M427.779000,247.141000L359.987000,247.141000L359.987000,254.979000L427.779000,254.979000L427.779000,247.141000Z" fill="rgb(255,255,255)" stroke="none" stroke-width="1"/><path id="eDM2da3VXPR39" d="M427.779000,264.053000L359.987000,264.053000L359.987000,271.892000L427.779000,271.892000L427.779000,264.053000Z" opacity="0.5" fill="rgb(255,255,255)" stroke="none" stroke-width="1"/><path id="eDM2da3VXPR40" d="M427.779000,280.957000L359.987000,280.957000L359.987000,288.796000L427.779000,288.796000L427.779000,280.957000Z" fill="rgb(255,255,255)" stroke="none" stroke-width="1"/><path id="eDM2da3VXPR41" d="M341.662000,213.324000L276.277000,213.324000L276.277000,288.805000L341.662000,288.805000L341.662000,213.324000Z" fill="rgb(255,255,255)" stroke="none" stroke-width="1"/><path id="eDM2da3VXPR42" d="M308.965000,245.363000C313.851000,245.363000,317.812000,241.400000,317.812000,236.511000C317.812000,231.623000,313.851000,227.660000,308.965000,227.660000C304.079000,227.660000,300.118000,231.623000,300.118000,236.511000C300.118000,241.400000,304.079000,245.363000,308.965000,245.363000Z" fill="rgb(113,212,235)" stroke="none" stroke-width="1"/><path id="eDM2da3VXPR43" d="M328.808000,274.470000L289.121000,274.470000L289.121000,268.151000C289.121000,258.606000,296.858000,250.865000,306.398000,250.865000L311.523000,250.865000C321.063000,250.865000,328.800000,258.606000,328.800000,268.151000L328.800000,274.470000L328.808000,274.470000Z" fill="rgb(113,212,235)" stroke="none" stroke-width="1"/><path id="eDM2da3VXPR44" d="M260.075000,253.780000L260.119000,190.741000L414.917000,190.741000" fill="none" stroke="rgb(0,0,0)" stroke-width="1" stroke-miterlimit="10"/><path id="eDM2da3VXPR45" d="M593.165000,94.695100L432.487000,94.695100L432.487000,206.641000L593.165000,206.641000L593.165000,94.695100Z" transform="matrix(0.90000000000000 0 0 0.90000000000000 51.28259887695310 15.06680526733399)" fill="rgb(216,30,91)" stroke="none" stroke-width="1"/><path id="eDM2da3VXPR46" d="M491.938000,175.375000L491.938000,125.952000L533.722000,150.668000L491.938000,175.375000Z" fill="rgb(255,255,255)" stroke="none" stroke-width="1"/><path id="eDM2da3VXPR47" d="M432.487000,141.825000L432.487000,94.695100L564.003000,94.695100" fill="none" stroke="rgb(0,0,0)" stroke-width="1" stroke-miterlimit="10"/><path id="eDM2da3VXPR48" d="M593.165000,179.703000L593.165000,206.641000L571.447000,206.641000" fill="none" stroke="rgb(0,0,0)" stroke-width="1" stroke-miterlimit="10"/><path id="eDM2da3VXPR49" d="M549.817000,630.721000L549.817000,685.130000L422.583000,685.130000C422.583000,685.130000,410.760000,678.793000,409.694000,658.939000C408.601000,638.578000,421.756000,631.166000,422.547000,630.739000L422.583000,630.721000L549.817000,630.721000Z" fill="rgb(216,30,91)" stroke="none" stroke-width="1"/><path id="eDM2da3VXPR50" d="M614.794000,633.369000L614.794000,682.481000L532.532000,682.481000C532.532000,682.481000,521.864000,676.757000,520.896000,658.840000C519.910000,640.461000,531.786000,633.769000,532.496000,633.387000L532.532000,633.369000L614.794000,633.369000Z" fill="rgb(249,229,236)" stroke="none" stroke-width="1"/><path id="eDM2da3VXPR51" d="M614.794000,644.647000L536.174000,644.647000L536.174000,648.451000L614.794000,648.451000L614.794000,644.647000Z" fill="rgb(183,110,138)" stroke="none" stroke-width="1"/><path id="eDM2da3VXPR52" d="M614.794000,656.023000L536.174000,656.023000L536.174000,659.827000L614.794000,659.827000L614.794000,656.023000Z" fill="rgb(183,110,138)" stroke="none" stroke-width="1"/><path id="eDM2da3VXPR53" d="M614.794000,667.399000L536.174000,667.399000L536.174000,671.203000L614.794000,671.203000L614.794000,667.399000Z" fill="rgb(183,110,138)" stroke="none" stroke-width="1"/><path id="eDM2da3VXPR54" d="M624.165000,685.147000L531.857000,685.147000L531.270000,684.827000C530.782000,684.569000,519.270000,678.170000,518.231000,658.982000C517.147000,638.844000,530.658000,631.343000,531.235000,631.040000L531.892000,630.703000L624.165000,630.703000L624.165000,636.035000L533.251000,636.035000C531.093000,637.422000,522.752000,643.758000,523.551000,658.698000C524.306000,672.731000,531.288000,678.455000,533.287000,679.814000L624.156000,679.814000L624.156000,685.147000L624.165000,685.147000Z" fill="rgb(150,20,67)" stroke="none" stroke-width="1"/><path id="eDM2da3VXPR55" d="M422.583000,685.129000C422.583000,685.129000,411,676.908000,409.863000,661.124000C408.131000,637.173000,422.547000,630.738000,422.547000,630.738000L494.399000,630.738000" fill="none" stroke="rgb(0,0,0)" stroke-width="1" stroke-miterlimit="10"/><path id="eDM2da3VXPR56" d="M750.734000,714.609000C750.734000,714.609000,735.136000,722.909000,720.986000,729.246000C719.094000,730.099000,717.229000,730.908000,715.426000,731.664000L700.858000,736.907000L677.053000,736.907000C674.965000,736.587000,674.015000,734.134000,675.347000,732.490000C676.244000,731.379000,677.168000,730.304000,678.136000,729.246000C683.182000,723.674000,689,718.804000,694.400000,714.840000C704.260000,707.597000,712.761000,703.366000,712.761000,703.366000L739.950000,689.608000C753.496000,693.945000,750.734000,714.609000,750.734000,714.609000Z" fill="rgb(216,30,91)" stroke="none" stroke-width="1"/><path id="eDM2da3VXPR57" d="M739.950000,689.608000L712.761000,703.366000L699.250000,680.757000L690.892000,666.786000L727.124000,647.331000L728.314000,651.250000L739.950000,689.608000Z" fill="rgb(250,145,147)" stroke="none" stroke-width="1"/><path id="eDM2da3VXPR58" d="M712.761000,703.366000L721.990000,710.129000" fill="none" stroke="rgb(0,0,0)" stroke-width="1" stroke-miterlimit="10"/><path id="eDM2da3VXPR59" d="M706.978000,706.601000L716.207000,713.355000" fill="none" stroke="rgb(0,0,0)" stroke-width="1" stroke-miterlimit="10"/><path id="eDM2da3VXPR60" d="M701.409000,709.978000L710.638000,716.733000" fill="none" stroke="rgb(0,0,0)" stroke-width="1" stroke-miterlimit="10"/><path id="eDM2da3VXPR61" d="M713.987000,729.246000L678.136000,729.246000C683.182000,723.674000,689,718.804000,694.400000,714.840000C698.433000,715.640000,707.671000,718.599000,713.987000,729.246000Z" fill="rgb(252,169,203)" stroke="none" stroke-width="1"/><path id="eDM2da3VXPR62" d="M727.932000,650.006000L699.250000,680.756000L690.892000,666.786000L727.124000,647.331000L727.932000,650.006000Z" fill="rgb(0,0,0)" stroke="none" stroke-width="1"/><path id="eDM2da3VXPR63" d="M727.630000,635.591000L684.656000,661.080000C684.656000,661.080000,654.713000,614.617000,654.171000,609.453000C653.629000,604.298000,664.084000,480.524000,664.084000,480.524000L668.632000,483.945000L710.931000,515.718000L717.717000,564.421000L727.630000,635.591000Z" fill="rgb(110,146,255)" stroke="none" stroke-width="1"/><path id="eDM2da3VXPR64" d="M717.717000,564.421000C716.998000,565.852000,716.234000,567.273000,715.425000,568.695000C707.937000,535.750000,664.865000,481.172000,664.865000,481.172000L668.632000,483.945000L710.931000,515.718000L717.717000,564.421000Z" fill="rgb(0,0,0)" stroke="none" stroke-width="1"/><path id="eDM2da3VXPR65" d="M673.757000,655.845000L727.630000,627.797000L735.100000,644.780000L686.690000,672.225000L673.757000,655.845000Z" fill="rgb(184,204,255)" stroke="none" stroke-width="1"/><path id="eDM2da3VXPR66" d="M720.986000,729.246000C719.094000,730.099000,717.229000,730.908000,715.425000,731.664000L700.858000,736.907000L677.053000,736.907000C674.965000,736.587000,674.015000,734.134000,675.347000,732.490000C676.244000,731.379000,677.168000,730.304000,678.136000,729.246000L720.986000,729.246000Z" fill="rgb(0,0,0)" stroke="none" stroke-width="1"/><path id="eDM2da3VXPR67" d="M774.202000,676.437000L774.051000,680.792000L773.047000,710.129000L741.620000,710.129000L740.341000,690.364000L739.444000,676.437000L774.202000,676.437000Z" fill="rgb(250,145,147)" stroke="none" stroke-width="1"/><path id="eDM2da3VXPR68" d="M774.202000,676.437000L774.104000,679.290000L740.341000,690.364000L739.444000,676.437000L774.202000,676.437000Z" fill="rgb(0,0,0)" stroke="none" stroke-width="1"/><path id="eDM2da3VXPR69" d="M774.788000,731.664000C774.370000,733.405000,773.802000,735.218000,773.047000,737.094000L703.274000,737.094000C700.520000,737.094000,698.983000,733.859000,700.778000,731.761000C700.804000,731.726000,700.831000,731.699000,700.858000,731.664000C703.416000,728.713000,707.964000,725.025000,716.020000,721.807000C716.891000,721.461000,717.744000,721.114000,718.579000,720.776000C733.546000,714.671000,741.620000,710.129000,741.620000,710.129000L773.047000,710.129000C773.047000,710.129000,777.852000,718.999000,774.788000,731.664000Z" fill="rgb(216,30,91)" stroke="none" stroke-width="1"/><path id="eDM2da3VXPR70" d="M774.788000,731.664000C774.370000,733.405000,773.802000,735.218000,773.047000,737.094000L703.274000,737.094000C700.520000,737.094000,698.983000,733.859000,700.778000,731.761000C700.804000,731.726000,700.831000,731.699000,700.858000,731.664000L774.788000,731.664000Z" fill="rgb(0,0,0)" stroke="none" stroke-width="1"/><path id="eDM2da3VXPR71" d="M730.410000,731.664000L700.858000,731.664000C703.416000,728.713000,707.964000,725.025000,716.021000,721.807000C716.891000,721.461000,717.744000,721.114000,718.579000,720.776000C718.943000,720.839000,727.293000,722.234000,730.410000,731.664000Z" fill="rgb(252,169,203)" stroke="none" stroke-width="1"/><path id="eDM2da3VXPR72" d="M740.465000,710.751000L746.434000,719.639000" fill="none" stroke="rgb(0,0,0)" stroke-width="1" stroke-miterlimit="10"/><path id="eDM2da3VXPR73" d="M735.340000,713.338000L741.265000,722.163000" fill="none" stroke="rgb(0,0,0)" stroke-width="1" stroke-miterlimit="10"/><path id="eDM2da3VXPR74" d="M730.135000,715.809000L736.095000,724.696000" fill="none" stroke="rgb(0,0,0)" stroke-width="1" stroke-miterlimit="10"/><path id="eDM2da3VXPR75" d="M723.962000,245.354000C723.962000,245.354000,712.965000,235.845000,703.318000,243.248000C692.677000,251.415000,703.389000,259.618000,699.517000,265.120000C695.644000,270.621000,690.483000,271.030000,693.610000,276.940000C696.736000,282.850000,699.259000,284.272000,695.191000,287.738000C691.114000,291.204000,688.822000,291.506000,689.897000,297.008000C690.963000,302.509000,687.809000,306.179000,687.809000,306.179000L713.374000,306.179000L742.704000,313.920000L773.864000,313.920000C773.864000,313.920000,767.957000,310.357000,770.809000,306.615000C773.660000,302.873000,773.660000,300.909000,770.134000,298.465000C766.607000,296.021000,764.022000,295.132000,768.304000,289.569000C772.585000,283.997000,769.734000,280.131000,766.812000,276.593000C763.889000,273.065000,771.040000,263.938000,767.291000,254.517000C762.201000,241.746000,744.001000,239.711000,734.026000,240.999000C724.033000,242.297000,723.962000,245.354000,723.962000,245.354000Z" fill="rgb(113,212,235)" stroke="none" stroke-width="1"/><path id="eDM2da3VXPR76" d="M697.429000,306.188000C697.429000,306.188000,693.725000,300.865000,697.918000,297.728000C702.928000,293.977000,702.057000,290.191000,702.057000,290.191000" fill="none" stroke="rgb(0,0,0)" stroke-width="1" stroke-miterlimit="10"/><path id="eDM2da3VXPR77" d="M705.024000,306.188000C705.024000,306.188000,701.764000,303.984000,705.024000,299.834000C708.284000,295.692000,710.389000,290.324000,707.742000,283.801000" fill="none" stroke="rgb(0,0,0)" stroke-width="1" stroke-miterlimit="10"/><path id="eDM2da3VXPR78" d="M673.952000,392.130000C673.952000,392.130000,669.768000,400.955000,662.183000,410.367000C659.731000,413.406000,656.924000,416.508000,653.798000,419.387000C640.962000,431.208000,632.719000,422.045000,613.977000,404.314000C602.944000,393.872000,583.545000,368.587000,569.919000,350.439000C566.543000,345.951000,560.548000,324.834000,560.548000,324.834000L575.213000,308.188000C575.213000,308.188000,572.832000,304.322000,564.820000,293.720000C556.808000,283.126000,562.653000,276.745000,566.321000,278.371000C569.981000,279.997000,640.864000,372.524000,641.815000,372.177000C642.259000,372.017000,643.618000,370.595000,644.915000,369.156000C646.354000,367.565000,647.722000,365.930000,647.722000,365.930000C667.406000,370.444000,673.952000,392.130000,673.952000,392.130000Z" fill="rgb(250,145,147)" stroke="none" stroke-width="1"/><path id="eDM2da3VXPR79" d="M673.952000,392.130000C673.952000,392.130000,674.077000,395.196000,666.491000,404.608000L645.892000,368.063000C647.331000,366.472000,647.722000,365.938000,647.722000,365.938000C667.406000,370.444000,673.952000,392.130000,673.952000,392.130000Z" fill="rgb(0,0,0)" stroke="none" stroke-width="1"/><path id="eDM2da3VXPR80" d="M744.196000,319.057000C744.196000,319.057000,774.477000,324.834000,785.882000,336.450000C794.845000,352.145000,793.211000,395.142000,793.211000,395.142000L757.769000,395.142000L672.629000,392.085000L643.707000,363.965000C643.707000,363.965000,667.743000,326.878000,676.706000,322.186000C685.669000,317.502000,706.747000,319.031000,706.747000,319.031000L744.196000,319.057000Z" fill="rgb(255,207,86)" stroke="none" stroke-width="1"/><path id="eDM2da3VXPR81" d="M753.088000,283.739000C752.679000,293.177000,744.196000,291.898000,744.196000,291.898000L744.196000,319.057000C744.196000,319.057000,734.354000,331.286000,721.590000,330.336000C708.826000,329.385000,706.756000,319.022000,706.756000,319.022000L709.030000,309.441000L711.233000,300.172000C711.233000,300.172000,705.566000,297.594000,704.278000,286.592000C702.990000,275.589000,709.909000,258.063000,709.909000,258.063000L717.451000,253.406000C717.584000,260.365000,725.658000,261.183000,730.410000,261.183000C735.163000,261.183000,736.930000,262.338000,737.064000,270.355000C737.206000,278.371000,740.803000,281.153000,742.295000,280.815000C743.788000,280.477000,742.837000,274.363000,745.893000,273.616000C748.948000,272.870000,753.496000,274.292000,753.088000,283.739000Z" fill="rgb(250,145,147)" stroke="none" stroke-width="1"/><path id="eDM2da3VXPR82" d="M736.770000,266.311000L749.108000,266.311000L750.432000,270.497000L737.063000,270.497000C737.072000,270.497000,734.949000,268.017000,736.770000,266.311000Z" fill="rgb(255,255,255)" stroke="none" stroke-width="1"/><path id="eDM2da3VXPR83" d="M715.665000,276.025000C715.665000,276.025000,711.544000,280.406000,711.792000,280.762000C712.041000,281.117000,714.084000,282.495000,714.084000,282.495000" fill="none" stroke="rgb(0,0,0)" stroke-width="1" stroke-miterlimit="10"/><path id="eDM2da3VXPR84" d="M684.451000,354.989000L749.766000,354.989000L759.403000,366.134000C759.403000,366.134000,763.613000,425.502000,766.332000,441.534000C769.050000,457.567000,774.210000,480.390000,775.561000,526.578000C776.920000,572.766000,781.192000,664.741000,781.192000,664.741000L728.030000,664.741000C728.030000,664.741000,710.105000,523.716000,706.036000,518.010000C701.959000,512.305000,664.075000,480.515000,664.075000,480.515000L673.854000,367.414000L684.451000,354.989000Z" fill="rgb(110,146,255)" stroke="none" stroke-width="1"/><path id="eDM2da3VXPR85" d="M724.912000,658.502000L784.115000,661.080000L784.115000,677.246000L727.444000,680.285000L724.912000,658.502000Z" fill="rgb(184,204,255)" stroke="none" stroke-width="1"/><path id="eDM2da3VXPR86" d="M753.789000,321.341000L752.315000,357.940000L738.929000,354.989000L744.196000,319.057000L753.789000,321.341000Z" fill="rgb(59,45,99)" stroke="none" stroke-width="1"/><path id="eDM2da3VXPR87" d="M704.109000,318.791000L703.087000,354.989000L688.724000,354.989000L694.942000,318.853000L704.109000,318.791000Z" fill="rgb(59,45,99)" stroke="none" stroke-width="1"/><path id="eDM2da3VXPR88" d="M744.196000,387.873000L687.978000,387.873000L687.978000,432.025000L744.196000,432.025000L744.196000,387.873000Z" fill="rgb(184,204,255)" stroke="none" stroke-width="1"/><path id="eDM2da3VXPR89" d="M687.978000,387.873000L687.978000,432.025000L709.705000,432.025000" fill="none" stroke="rgb(0,0,0)" stroke-width="1" stroke-miterlimit="10"/><path id="eDM2da3VXPR90" d="M810.523000,385.971000L721.314000,385.971000L721.314000,451.995000L810.523000,451.995000L810.523000,385.971000Z" fill="rgb(59,45,99)" stroke="none" stroke-width="1"/><path id="eDM2da3VXPR91" d="M771.635000,418.978000C771.635000,422.133000,769.076000,424.693000,765.923000,424.693000C762.032000,424.693000,759.510000,420.125000,760.212000,418.978000C760.878000,417.876000,764.555000,419.876000,765.923000,418.267000C767.193000,416.783000,765.115000,413.833000,765.923000,413.264000C766.847000,412.615000,771.635000,415.015000,771.635000,418.978000Z" fill="rgb(255,255,255)" stroke="none" stroke-width="1"/><path id="eDM2da3VXPR92" d="M824.993000,421.564000L810.532000,451.995000L810.532000,421.564000L824.993000,421.564000Z" fill="rgb(59,45,99)" stroke="none" stroke-width="1"/><path id="eDM2da3VXPR93" d="M790.466000,450.457000C790.262000,451.622000,789.853000,452.742000,789.231000,453.746000C787.259000,456.945000,781.805000,463.415000,770.080000,463.326000C754.509000,463.211000,750.023000,451.897000,748.700000,445.889000C747.376000,439.881000,748.664000,431.287000,749.890000,431.083000C751.116000,430.879000,757.085000,430.265000,757.564000,435.767000C757.564000,435.767000,757.840000,426.799000,763.809000,426.933000C769.778000,427.066000,769.645000,433.251000,769.645000,433.251000C769.645000,433.251000,768.828000,424.284000,772.025000,422.587000C775.223000,420.889000,780.988000,421.565000,781.192000,428.630000C781.192000,428.630000,785.740000,425.164000,789.204000,430.123000C792.260000,434.505000,791.301000,445.667000,790.466000,450.457000Z" fill="rgb(250,145,147)" stroke="none" stroke-width="1"/><path id="eDM2da3VXPR94" d="M781.192000,428.630000C781.192000,428.630000,780.855000,447.107000,781.192000,449.142000" fill="none" stroke="rgb(0,0,0)" stroke-width="1" stroke-miterlimit="10"/><path id="eDM2da3VXPR95" d="M769.654000,433.251000L769.654000,448.325000" fill="none" stroke="rgb(0,0,0)" stroke-width="1" stroke-miterlimit="10"/><path id="eDM2da3VXPR96" d="M757.564000,435.758000C757.564000,435.758000,756.818000,445.134000,758.995000,448.325000" fill="none" stroke="rgb(0,0,0)" stroke-width="1" stroke-miterlimit="10"/><path id="eDM2da3VXPR97" d="M758.177000,350.919000L759.404000,366.134000" fill="none" stroke="rgb(0,0,0)" stroke-width="1" stroke-miterlimit="10"/><path id="eDM2da3VXPR98" d="M767.549000,356.118000C767.549000,356.118000,774.166000,346.333000,781.805000,345.115000" fill="none" stroke="rgb(0,0,0)" stroke-width="1" stroke-miterlimit="10"/><path id="eDM2da3VXPR99" d="M673.855000,367.423000L674.805000,342.360000" fill="none" stroke="rgb(0,0,0)" stroke-width="1" stroke-miterlimit="10"/><path id="eDM2da3VXPR100" d="M560.548000,323.066000C560.548000,323.066000,559.038000,323.377000,557.519000,324.505000C554.881000,326.461000,554.250000,330.167000,555.973000,332.957000C562.484000,343.489000,563.825000,344.937000,567.387000,346.786000C571.207000,348.777000,575.080000,344.262000,573.472000,339.178000C569.119000,330.993000,564.190000,322.932000,560.548000,323.066000Z" fill="rgb(250,145,147)" stroke="none" stroke-width="1"/><path id="eDM2da3VXPR101" d="M568.355000,315.662000C568.355000,315.662000,561.223000,314.640000,560.548000,323.066000C571.686000,336.992000,575.453000,343.231000,577.060000,343.836000C580.320000,345.062000,584.513000,340.920000,583.696000,335.828000C578.464000,326.532000,568.355000,315.662000,568.355000,315.662000Z" fill="rgb(250,145,147)" stroke="none" stroke-width="1"/><path id="eDM2da3VXPR102" d="M575.213000,308.188000C575.213000,308.188000,593.609000,327.003000,590.757000,332.779000C587.906000,338.556000,582.275000,335.223000,582.275000,335.223000L568.355000,315.662000C568.355000,315.662000,565.637000,309.752000,575.213000,308.188000Z" fill="rgb(250,145,147)" stroke="none" stroke-width="1"/><path id="eDM2da3VXPR103" d="M639.434000,387.873000L642.694000,412.873000" fill="none" stroke="rgb(0,0,0)" stroke-width="1" stroke-miterlimit="10"/><path id="eDM2da3VXPR104" d="M606.418000,345.391000C611.792000,343.587000,614.599000,337.463000,612.129000,332.362000C611.676000,331.438000,611.090000,330.611000,610.308000,329.962000C605.965000,326.336000,598.974000,329.731000,591.770000,336.183000C584.575000,342.636000,582.541000,348.270000,589.940000,348.812000C594.177000,349.124000,601.195000,347.142000,606.418000,345.391000Z" fill="rgb(250,145,147)" stroke="none" stroke-width="1"/><path id="eDM2da3VXPR105" d="M724.086000,288.938000C724.050000,290.893000,723.509000,292.759000,721.794000,293.550000C719.813000,294.466000,718.072000,293.639000,716.758000,292.120000C715.230000,290.351000,714.288000,287.631000,714.253000,285.605000C714.253000,285.605000,715.985000,287.205000,718.197000,286.147000C720.400000,285.099000,723.082000,282.921000,723.082000,282.921000C723.082000,282.921000,724.148000,286.023000,724.086000,288.938000Z" fill="rgb(0,0,0)" stroke="none" stroke-width="1"/><path id="eDM2da3VXPR106" d="M724.086000,288.938000C724.050000,290.893000,723.509000,292.760000,721.794000,293.551000C719.813000,294.466000,718.072000,293.639000,716.758000,292.120000C717.282000,290.884000,718.277000,289.258000,719.920000,288.636000C721.412000,288.067000,722.967000,288.458000,724.086000,288.938000Z" fill="rgb(216,30,91)" stroke="none" stroke-width="1"/><path id="eDM2da3VXPR107" d="M730.011000,298.074000C730.011000,298.074000,723.322000,313.289000,709.030000,309.441000L711.233000,300.172000C711.233000,300.172000,721.252000,305.477000,730.011000,298.074000Z" fill="rgb(0,0,0)" stroke="none" stroke-width="1"/><path id="eDM2da3VXPR108" d="M721.466000,252.793000C722.141000,248.714000,723.963000,245.354000,723.963000,245.354000" fill="none" stroke="rgb(0,0,0)" stroke-width="1" stroke-miterlimit="10"/><path id="eDM2da3VXPR109" d="M753.790000,313.929000C753.790000,313.929000,754.927000,312.098000,751.818000,309.548000C748.709000,306.997000,747.900000,306.188000,748.558000,300.989000C749.215000,295.790000,747.181000,294.217000,747.181000,294.217000" fill="none" stroke="rgb(0,0,0)" stroke-width="1" stroke-miterlimit="10"/><path id="eDM2da3VXPR110" d="M753.985000,270.061000C753.985000,270.061000,760.513000,275.651000,758.275000,282.912000C756.037000,290.173000,754.562000,292.324000,757.716000,296.244000C760.869000,300.163000,753.239000,302.660000,758.071000,307.095000C762.912000,311.530000,761.535000,313.921000,761.535000,313.921000" fill="none" stroke="rgb(0,0,0)" stroke-width="1" stroke-miterlimit="10"/><path id="eDM2da3VXPR111" d="M748.540000,277.180000C748.540000,277.180000,745.618000,278.575000,744.703000,282.104000C743.788000,285.632000,746.097000,287.196000,746.097000,287.196000" fill="none" stroke="rgb(0,0,0)" stroke-width="1" stroke-miterlimit="10"/><path id="eDM2da3VXPR112" d="M745.227000,280.682000C745.227000,280.682000,749.224000,280.406000,748.540000,284.548000" fill="none" stroke="rgb(0,0,0)" stroke-width="1" stroke-miterlimit="10"/><path id="eDM2da3VXPR113" d="M722.309000,266.951000C722.291000,267.146000,722.558000,267.235000,722.665000,267.066000C723.180000,266.275000,724.716000,264.373000,727.443000,264.693000C730.881000,265.102000,731.618000,268.924000,732.817000,269.333000C734.017000,269.741000,734.754000,268.568000,734.292000,267.599000C733.830000,266.631000,731.263000,262.987000,727.648000,262.782000C724.592000,262.605000,722.407000,265.715000,722.309000,266.951000Z" fill="rgb(0,0,0)" stroke="none" stroke-width="1"/><path id="eDM2da3VXPR114" d="M717.593000,266.853000C717.593000,266.853000,716.855000,262.756000,714.484000,261.911000C712.112000,261.067000,709.803000,263.822000,710.185000,264.640000C710.567000,265.457000,711.251000,265.244000,712.530000,264.302000C713.800000,263.360000,715.301000,263.564000,716.021000,265.022000C716.740000,266.479000,717.415000,267.386000,717.593000,266.853000Z" fill="rgb(0,0,0)" stroke="none" stroke-width="1"/><path id="eDM2da3VXPR115" d="M705.583000,354.989000L687.303000,354.989000L687.303000,362.837000L705.583000,362.837000L705.583000,354.989000Z" fill="rgb(184,204,255)" stroke="none" stroke-width="1"/><path id="eDM2da3VXPR116" d="M735.847000,354.989000L735.509000,362.188000L752.821000,367.894000L755.539000,361.655000L752.448000,358.082000C750.751000,356.118000,748.282000,354.989000,745.688000,354.989000L735.847000,354.989000Z" fill="rgb(184,204,255)" stroke="none" stroke-width="1"/><path id="eDM2da3VXPR117" d="M723.624000,274.932000C724.561000,274.932000,725.320000,273.945000,725.320000,272.728000C725.320000,271.510000,724.561000,270.523000,723.624000,270.523000C722.687000,270.523000,721.927000,271.510000,721.927000,272.728000C721.927000,273.945000,722.687000,274.932000,723.624000,274.932000Z" fill="rgb(0,0,0)" stroke="none" stroke-width="1"/><path id="eDM2da3VXPR118" d="M712.725000,274.292000C713.662000,274.292000,714.422000,273.305000,714.422000,272.088000C714.422000,270.870000,713.662000,269.884000,712.725000,269.884000C711.788000,269.884000,711.029000,270.870000,711.029000,272.088000C711.029000,273.305000,711.788000,274.292000,712.725000,274.292000Z" fill="rgb(0,0,0)" stroke="none" stroke-width="1"/><path id="eDM2da3VXPR119" d="M578.144000,311.343000C578.144000,311.343000,585.801000,320.026000,588.377000,324.470000C590.953000,328.914000,592.614000,332.309000,589.114000,334.984000C585.890000,337.446000,583.696000,335.837000,583.696000,335.837000C583.696000,335.837000,584.753000,339.845000,581.875000,342.245000C578.997000,344.635000,577.256000,344.493000,575.941000,342.947000C574.627000,341.400000,573.845000,340.387000,573.845000,340.387000C573.845000,340.387000,574.920000,344.324000,571.793000,346.306000C568.666000,348.288000,566.046000,346.528000,564.429000,344.840000" fill="none" stroke="rgb(0,0,0)" stroke-width="1" stroke-miterlimit="10"/><path id="eDM2da3VXPR120" d="M571.385000,319.075000C571.385000,319.075000,579.201000,328.496000,581.449000,332.166000" fill="none" stroke="rgb(0,0,0)" stroke-width="1" stroke-miterlimit="10"/><path id="eDM2da3VXPR121" d="M572.415000,337.232000C572.415000,337.232000,566.224000,325.679000,563.044000,324.034000" fill="none" stroke="rgb(0,0,0)" stroke-width="1" stroke-miterlimit="10"/><path id="eDM2da3VXPR122" d="M561.934000,342.058000L555.716000,332.504000" fill="none" stroke="rgb(0,0,0)" stroke-width="1" stroke-miterlimit="10"/><path id="eDM2da3VXPR123" d="M591.770000,336.183000C591.770000,336.183000,583.838000,343.320000,585.801000,347.186000C587.764000,351.052000,601.026000,347.337000,606.418000,345.391000" fill="none" stroke="rgb(0,0,0)" stroke-width="1" stroke-miterlimit="10"/><path id="eDM2da3VXPR124" d="M602.190000,329.260000C602.190000,329.260000,608.434000,326.701000,611.507000,331.304000C614.590000,335.908000,611.818000,340.903000,611.818000,340.903000" fill="none" stroke="rgb(0,0,0)" stroke-width="1" stroke-miterlimit="10"/><path id="eDM2da3VXPR125" d="M567.734000,297.603000C567.734000,297.603000,558.958000,286.645000,561.143000,281.624000C563.328000,276.602000,566.313000,278.060000,568,279.953000" fill="none" stroke="rgb(0,0,0)" stroke-width="1" stroke-miterlimit="10"/><path id="eDM2da3VXPR126" d="M591.060000,342.254000C591.655000,342.431000,593.360000,344.902000,593.156000,345.569000C592.952000,346.235000,587.862000,346.537000,588.111000,345.311000C588.359000,344.084000,590.029000,341.951000,591.060000,342.254000Z" fill="none" stroke="rgb(0,0,0)" stroke-width="1" stroke-miterlimit="10"/><path id="eDM2da3VXPR127" d="M597.579000,339.561000L599.516000,343.631000" fill="none" stroke="rgb(0,0,0)" stroke-width="1" stroke-miterlimit="10"/><path id="eDM2da3VXPR128" d="M599.924000,338.947000L600.937000,341.596000" fill="none" stroke="rgb(0,0,0)" stroke-width="1" stroke-miterlimit="10"/><path id="eDM2da3VXPR129" d="M664.084000,480.524000C664.084000,480.524000,702.785000,512.447000,706.045000,518.020000C709.305000,523.592000,721.261000,613.195000,721.261000,613.195000" fill="none" stroke="rgb(0,0,0)" stroke-width="1" stroke-miterlimit="10"/><path id="eDM2da3VXPR130" d="M817.416000,421.564000L810.532000,451.995000L810.532000,421.564000L817.416000,421.564000Z" fill="rgb(0,0,0)" stroke="none" stroke-width="1"/><path id="eDM2da3VXPR131" d="M727.444000,680.285000L724.912000,658.502000L784.115000,661.080000" fill="none" stroke="rgb(0,0,0)" stroke-width="1" stroke-miterlimit="10"/><path id="eDM2da3VXPR132" d="M686.690000,672.225000L673.757000,655.845000L716.731000,633.476000" fill="none" stroke="rgb(0,0,0)" stroke-width="1" stroke-miterlimit="10"/><path id="eDM2da3VXPR133" d="M770.800000,468.063000C770.800000,468.063000,774.575000,496.850000,775.445000,522.916000C776.316000,548.983000,776.636000,557.746000,776.636000,557.746000" fill="none" stroke="rgb(0,0,0)" stroke-width="1" stroke-miterlimit="10"/><path id="eDM2da3VXPR134" d="M659.189000,603.205000L673.757000,594.851000" fill="none" stroke="rgb(0,0,0)" stroke-width="1" stroke-miterlimit="10"/><path id="eDM2da3VXPR135" d="M660.140000,611.764000L670.053000,605.925000" fill="none" stroke="rgb(0,0,0)" stroke-width="1" stroke-miterlimit="10"/><path id="eDM2da3VXPR136" d="M746.577000,587.714000L766.811000,587.714000" fill="none" stroke="rgb(0,0,0)" stroke-width="1" stroke-miterlimit="10"/><path id="eDM2da3VXPR137" d="M756.694000,594.851000L769.760000,594.851000" fill="none" stroke="rgb(0,0,0)" stroke-width="1" stroke-miterlimit="10"/><path id="eDM2da3VXPR138" d="M773.047000,710.129000L741.620000,710.129000L718.579000,720.776000" fill="none" stroke="rgb(0,0,0)" stroke-width="1" stroke-miterlimit="10"/><path id="eDM2da3VXPR139" d="M735.340000,691.937000L711.846000,703.837000C711.846000,703.837000,701.391000,709.703000,696.452000,713.355000" fill="none" stroke="rgb(0,0,0)" stroke-width="1" stroke-miterlimit="10"/><path id="eDM2da3VXPR140" d="M694.960000,269.875000C694.960000,269.875000,700.263000,266.026000,700.378000,262.765000C700.494000,259.503000,696.479000,252.215000,699.934000,246.794000C703.389000,241.373000,710.034000,239.124000,716.207000,241.168000" fill="none" stroke="rgb(0,0,0)" stroke-width="1" stroke-miterlimit="10"/><path id="eDM2da3VXPR141" d="M743.805000,240.866000C743.805000,240.866000,757.005000,241.488000,763.800000,249.078000C770.595000,256.668000,767.531000,267.013000,767.531000,267.013000" fill="none" stroke="rgb(0,0,0)" stroke-width="1" stroke-miterlimit="10"/><path id="eDM2da3VXPR142" d="M213.343000,697.767000L214.889000,702.051000C214.889000,702.051000,235.257000,707.010000,246.529000,728.882000L143.597000,728.882000C143.597000,728.882000,141.696000,717.195000,145.364000,697.767000L213.343000,697.767000Z" fill="rgb(255,207,86)" stroke="none" stroke-width="1"/><path id="eDM2da3VXPR143" d="M143.597000,728.873000L144.680000,733.121000L246.520000,733.121000C246.520000,733.121000,248.270000,732.028000,246.520000,728.873000L143.597000,728.873000Z" fill="rgb(15,12,28)" stroke="none" stroke-width="1"/><path id="eDM2da3VXPR144" d="M166.132000,721.265000C170.145000,721.265000,173.398000,718.011000,173.398000,713.995000C173.398000,709.980000,170.145000,706.726000,166.132000,706.726000C162.119000,706.726000,158.866000,709.980000,158.866000,713.995000C158.866000,718.011000,162.119000,721.265000,166.132000,721.265000Z" fill="none" stroke="rgb(0,0,0)" stroke-width="1" stroke-miterlimit="10"/><path id="eDM2da3VXPR145" d="M214.880000,702.042000L207.756000,709.810000" fill="none" stroke="rgb(0,0,0)" stroke-width="1" stroke-miterlimit="10"/><path id="eDM2da3VXPR146" d="M224.970000,706.397000L216.061000,716.120000" fill="none" stroke="rgb(0,0,0)" stroke-width="1" stroke-miterlimit="10"/><path id="eDM2da3VXPR147" d="M146.599000,474.551000L141.172000,697.767000L216.123000,697.767000L221.551000,537.456000L221.551000,471.885000C221.559000,471.885000,165.608000,453.764000,146.599000,474.551000Z" fill="rgb(0,0,0)" stroke="none" stroke-width="1"/><path id="eDM2da3VXPR148" d="M281.029000,474.551000L311.443000,697.767000L243.278000,697.767000L205.802000,475.404000C205.802000,475.404000,248.714000,461.913000,281.029000,474.551000Z" fill="rgb(59,45,99)" stroke="none" stroke-width="1"/><path id="eDM2da3VXPR149" d="M150.987000,284.201000C150.987000,284.201000,140.630000,285.161000,136.011000,298.199000C131.392000,311.246000,133.835000,340.583000,137.095000,352.003000C140.354000,363.415000,147.141000,375.235000,147.141000,375.235000L150.987000,284.201000Z" fill="rgb(110,146,255)" stroke="none" stroke-width="1"/><path id="eDM2da3VXPR150" d="M281.029000,474.551000C276.818000,476.995000,146.608000,474.551000,146.608000,474.551000C146.608000,474.551000,142.255000,377.954000,143.614000,341.276000C144.973000,304.589000,142.255000,291.960000,146.874000,286.254000C150.330000,281.979000,179.935000,280.557000,179.935000,280.557000C179.935000,280.557000,201.600000,274.061000,226.987000,280.557000C226.987000,280.557000,262.126000,281.428000,266.603000,283.979000C271.089000,286.521000,280.487000,329.865000,280.762000,374.426000C280.807000,381.803000,280.958000,389.410000,281.162000,396.991000C281.579000,412.544000,282.219000,427.946000,282.592000,440.886000C283.134000,459.736000,283.107000,473.343000,281.029000,474.551000Z" fill="rgb(110,146,255)" stroke="none" stroke-width="1"/><path id="eDM2da3VXPR151" d="M282.592000,440.886000C269.961000,412.055000,249.664000,361.068000,249.344000,360.002000L281.162000,396.991000C281.580000,412.544000,282.219000,427.946000,282.592000,440.886000Z" fill="rgb(15,12,28)" stroke="none" stroke-width="1"/><path id="eDM2da3VXPR152" d="M232.086000,238.786000C232.237000,239.444000,229.430000,240.875000,229.128000,241.888000C228.826000,242.910000,229.909000,258.552000,226.179000,260.241000C223.487000,261.458000,220.556000,260.472000,218.770000,260.152000C218.770000,260.152000,218.726000,260.143000,218.646000,260.125000C218.007000,260.018000,217.527000,260.010000,217.278000,260.241000C216.878000,260.614000,216.816000,263.360000,216.870000,266.409000C216.958000,270.603000,217.278000,275.385000,217.278000,275.385000L188.765000,275.385000L189.511000,256.366000L198.136000,232.583000L207.436000,218.052000C207.436000,218.052000,221.764000,214.790000,226.179000,218.861000C226.179000,218.861000,227.857000,225.891000,228.159000,230.379000C228.470000,234.858000,231.926000,238.120000,232.086000,238.786000Z" fill="rgb(241,105,108)" stroke="none" stroke-width="1"/><path id="eDM2da3VXPR153" d="M218.646000,260.125000C218.007000,260.019000,217.527000,260.010000,217.278000,260.241000C216.878000,260.614000,216.816000,263.360000,216.870000,266.409000C214.391000,264.818000,209.408000,261.005000,209.204000,256.162000C211.318000,258.144000,217.687000,259.868000,218.646000,260.125000Z" fill="rgb(15,12,28)" stroke="none" stroke-width="1"/><path id="eDM2da3VXPR154" d="M208.449000,220.292000C208.449000,220.292000,209.826000,242.404000,208.449000,241.639000C207.072000,240.875000,202.950000,235.427000,199.539000,237.613000C196.128000,239.800000,196.786000,246.279000,199.539000,248.003000C202.293000,249.736000,206.308000,248.616000,206.308000,248.616000C206.308000,248.616000,206.361000,254.624000,207.987000,256.766000C203.403000,258.952000,191.492000,260.890000,189.147000,260.028000C186.802000,259.165000,181.899000,249.229000,177.964000,244.608000C174.028000,239.986000,172.545000,235.116000,174.633000,228.495000C176.720000,221.874000,182.272000,222.532000,182.272000,222.532000C182.272000,222.532000,179.722000,217.288000,182.627000,214.435000C185.532000,211.582000,190.621000,213.929000,190.621000,213.929000C190.621000,213.929000,191.083000,206.339000,198.518000,203.841000C205.953000,201.344000,211.247000,206.436000,213.645000,205.521000C216.034000,204.606000,216.399000,198.642000,222.963000,197.620000C229.527000,196.598000,236.562000,205.317000,232.689000,212.755000C228.817000,220.194000,227.244000,221.723000,221.178000,220.043000C215.120000,218.354000,208.449000,220.292000,208.449000,220.292000Z" fill="rgb(15,12,28)" stroke="none" stroke-width="1"/><path id="eDM2da3VXPR155" d="M224.429000,228.824000C224.837000,228.771000,223.834000,224.238000,221.311000,224.185000C218.815000,224.131000,216.266000,227.953000,216.497000,229.002000C216.727000,230.050000,218.326000,230.175000,218.762000,229.410000C219.197000,228.646000,220.760000,225.882000,221.675000,225.944000C223.087000,226.051000,223.896000,228.886000,224.429000,228.824000Z" fill="rgb(0,0,0)" stroke="none" stroke-width="1"/><path id="eDM2da3VXPR156" d="M224.012000,234.689000C224.713000,234.689000,225.282000,233.929000,225.282000,232.992000C225.282000,232.054000,224.713000,231.294000,224.012000,231.294000C223.310000,231.294000,222.741000,232.054000,222.741000,232.992000C222.741000,233.929000,223.310000,234.689000,224.012000,234.689000Z" fill="rgb(0,0,0)" stroke="none" stroke-width="1"/><path id="eDM2da3VXPR157" d="M200.117000,241.008000C200.117000,241.008000,201.156000,239.800000,202.710000,241.008000C204.265000,242.217000,205.375000,243.559000,205.375000,243.559000" fill="none" stroke="rgb(0,0,0)" stroke-width="1" stroke-miterlimit="10"/><path id="eDM2da3VXPR158" d="M203.653000,241.791000C203.653000,241.791000,202.560000,241.924000,202.089000,242.662000" fill="none" stroke="rgb(0,0,0)" stroke-width="1" stroke-miterlimit="10"/><path id="eDM2da3VXPR159" d="M179.936000,280.557000L226.987000,280.557000C226.987000,280.557000,224.136000,273.989000,221.844000,273.421000C219.552000,272.861000,184.928000,271.990000,183.302000,272.710000C181.668000,273.430000,179.936000,280.557000,179.936000,280.557000Z" fill="rgb(224,232,252)" stroke="none" stroke-width="1"/><path id="eDM2da3VXPR160" d="M266.603000,283.970000C266.603000,283.970000,275.459000,283.259000,286.465000,309.752000C297.471000,336.246000,314.774000,367.627000,314.774000,367.627000L363.184000,321.573000L390.481000,355.540000C390.481000,355.540000,330.603000,427.546000,306.158000,429.172000C287.558000,430.417000,256.033000,374.070000,243.047000,349.497000C237.007000,338.068000,234.360000,325.074000,235.958000,312.241000C237.726000,297.985000,244.806000,283.286000,266.603000,283.970000Z" fill="rgb(110,146,255)" stroke="none" stroke-width="1"/><path id="eDM2da3VXPR161" d="M306.282000,686.080000L251.565000,686.080000" fill="none" stroke="rgb(197,185,239)" stroke-width="1" stroke-miterlimit="10"/><path id="eDM2da3VXPR162" d="M211.034000,686.080000L156.308000,686.080000" fill="none" stroke="rgb(0,0,0)" stroke-width="1" stroke-miterlimit="10"/><path id="eDM2da3VXPR163" d="M311.265000,697.767000L312.811000,702.051000C312.811000,702.051000,333.179000,707.010000,344.451000,728.882000L241.519000,728.882000C241.519000,728.882000,239.618000,717.195000,243.286000,697.767000L311.265000,697.767000Z" fill="rgb(255,207,86)" stroke="none" stroke-width="1"/><path id="eDM2da3VXPR164" d="M241.519000,728.873000L242.602000,733.121000L344.442000,733.121000C344.442000,733.121000,346.192000,732.028000,344.442000,728.873000L241.519000,728.873000Z" fill="rgb(15,12,28)" stroke="none" stroke-width="1"/><path id="eDM2da3VXPR165" d="M264.054000,721.265000C268.067000,721.265000,271.320000,718.011000,271.320000,713.995000C271.320000,709.980000,268.067000,706.726000,264.054000,706.726000C260.041000,706.726000,256.788000,709.980000,256.788000,713.995000C256.788000,718.011000,260.041000,721.265000,264.054000,721.265000Z" fill="none" stroke="rgb(0,0,0)" stroke-width="1" stroke-miterlimit="10"/><path id="eDM2da3VXPR166" d="M312.802000,702.042000L305.678000,709.810000" fill="none" stroke="rgb(0,0,0)" stroke-width="1" stroke-miterlimit="10"/><path id="eDM2da3VXPR167" d="M322.892000,706.397000L313.983000,716.120000" fill="none" stroke="rgb(0,0,0)" stroke-width="1" stroke-miterlimit="10"/><path id="eDM2da3VXPR168" d="M363.175000,321.573000C363.175000,321.573000,356.860000,314.916000,355.705000,310.703000C354.550000,306.491000,360.368000,301.025000,369.606000,293.755000C378.222000,286.974000,382.593000,283.597000,385.711000,283.597000C388.837000,283.597000,395.650000,291.516000,390.463000,296.030000C384.929000,300.856000,374.945000,311.379000,374.945000,311.379000L363.175000,321.573000Z" fill="rgb(241,105,108)" stroke="none" stroke-width="1"/><path id="eDM2da3VXPR169" d="M374.954000,311.379000L423.462000,311.379000C423.462000,311.379000,429.706000,317.565000,422.920000,324.968000C416.134000,332.371000,390.463000,355.531000,390.463000,355.531000L363.167000,321.564000L374.954000,311.379000Z" fill="rgb(241,105,108)" stroke="none" stroke-width="1"/><path id="eDM2da3VXPR170" d="M383.108000,287.774000C383.605000,286.699000,387.523000,288.050000,387.487000,291.302000C387.452000,294.555000,381.749000,290.734000,383.108000,287.774000Z" fill="none" stroke="rgb(0,0,0)" stroke-width="1" stroke-miterlimit="10"/><path id="eDM2da3VXPR171" d="M312.980000,381.687000L307.845000,412.055000" fill="none" stroke="rgb(0,0,0)" stroke-width="1" stroke-miterlimit="10"/><path id="eDM2da3VXPR172" d="M224.517000,245.932000C224.517000,245.932000,224.144000,247.479000,222.235000,247.496000C220.298000,247.514000,218.770000,244.919000,218.770000,244.919000" fill="none" stroke="rgb(0,0,0)" stroke-width="1" stroke-miterlimit="10"/><path id="eDM2da3VXPR173" d="M149.042000,462.802000L274.917000,462.802000" fill="none" stroke="rgb(0,0,0)" stroke-width="1" stroke-miterlimit="10"/><path id="eDM2da3VXPR174" d="M158.750000,462.802000L158.750000,471.841000" fill="none" stroke="rgb(0,0,0)" stroke-width="1" stroke-miterlimit="10"/><path id="eDM2da3VXPR175" d="M173.620000,462.802000L173.620000,471.841000" fill="none" stroke="rgb(0,0,0)" stroke-width="1" stroke-miterlimit="10"/><path id="eDM2da3VXPR176" d="M188.490000,462.802000L188.490000,471.841000" fill="none" stroke="rgb(0,0,0)" stroke-width="1" stroke-miterlimit="10"/><path id="eDM2da3VXPR177" d="M203.359000,462.802000L203.359000,471.841000" fill="none" stroke="rgb(0,0,0)" stroke-width="1" stroke-miterlimit="10"/><path id="eDM2da3VXPR178" d="M218.229000,462.802000L218.229000,471.841000" fill="none" stroke="rgb(0,0,0)" stroke-width="1" stroke-miterlimit="10"/><path id="eDM2da3VXPR179" d="M233.098000,462.802000L233.098000,471.841000" fill="none" stroke="rgb(0,0,0)" stroke-width="1" stroke-miterlimit="10"/><path id="eDM2da3VXPR180" d="M247.968000,462.802000L247.968000,471.841000" fill="none" stroke="rgb(0,0,0)" stroke-width="1" stroke-miterlimit="10"/><path id="eDM2da3VXPR181" d="M262.837000,462.802000L262.837000,471.841000" fill="none" stroke="rgb(0,0,0)" stroke-width="1" stroke-miterlimit="10"/><path id="eDM2da3VXPR182" d="M384.183000,362.881000L358.858000,332.095000" fill="none" stroke="rgb(0,0,0)" stroke-width="1" stroke-miterlimit="10"/><path id="eDM2da3VXPR183" d="M379.777000,357.522000L385.009000,352.074000" fill="none" stroke="rgb(0,0,0)" stroke-width="1" stroke-miterlimit="10"/><path id="eDM2da3VXPR184" d="M374.074000,350.599000L379.306000,345.151000" fill="none" stroke="rgb(0,0,0)" stroke-width="1" stroke-miterlimit="10"/><path id="eDM2da3VXPR185" d="M368.381000,343.676000L373.604000,338.228000" fill="none" stroke="rgb(0,0,0)" stroke-width="1" stroke-miterlimit="10"/><path id="eDM2da3VXPR186" d="M362.678000,336.752000L367.901000,331.304000" fill="none" stroke="rgb(0,0,0)" stroke-width="1" stroke-miterlimit="10"/><path id="eDM2da3VXPR187" d="M251.609000,286.636000C251.609000,286.636000,237.539000,290.964000,235.523000,317.884000" fill="none" stroke="rgb(0,0,0)" stroke-width="1" stroke-miterlimit="10"/><path id="eDM2da3VXPR188" d="M238.552000,338.850000C238.552000,338.850000,260.643000,385.251000,281.597000,411.184000" fill="none" stroke="rgb(0,0,0)" stroke-width="1" stroke-miterlimit="10"/><path id="eDM2da3VXPR189" d="M158.359000,282.646000C158.359000,282.646000,146.883000,283.872000,145.719000,288.138000" fill="none" stroke="rgb(0,0,0)" stroke-width="1" stroke-miterlimit="10"/><path id="eDM2da3VXPR190" d="M144.023000,302.589000C144.023000,302.589000,142.593000,358.002000,143.357000,381.696000" fill="none" stroke="rgb(0,0,0)" stroke-width="1" stroke-miterlimit="10"/><path id="eDM2da3VXPR191" d="M370.583000,295.693000L375.060000,301.807000" fill="none" stroke="rgb(0,0,0)" stroke-width="1" stroke-miterlimit="10"/><path id="eDM2da3VXPR192" d="M368.993000,298.261000L372.164000,302.589000" fill="none" stroke="rgb(0,0,0)" stroke-width="1" stroke-miterlimit="10"/><path id="eDM2da3VXPR193" d="M263.539000,482.568000L294.308000,686.080000" fill="none" stroke="rgb(197,185,239)" stroke-width="1" stroke-miterlimit="10"/><path id="eDM2da3VXPR194" d="M368.381000,317.076000L374.963000,311.388000L407.757000,311.388000C407.748000,311.379000,384.201000,311.965000,368.381000,317.076000Z" fill="rgb(15,12,28)" stroke="none" stroke-width="1"/><path id="eDM2da3VXPR195" d="M572.424000,495.197000L572.424000,423.671000L532.301000,380.265000L424.554000,380.265000L424.554000,495.197000L572.424000,495.197000Z" fill="rgb(255,207,86)" stroke="none" stroke-width="1"/><path id="eDM2da3VXPR196" d="M532.301000,380.265000L572.424000,423.671000L532.301000,423.671000L532.301000,380.265000Z" fill="rgb(255,232,187)" stroke="none" stroke-width="1"/><path id="eDM2da3VXPR197" d="M499,407L448,407L448,413L499,413L499,407Z" fill="rgb(255,255,255)" stroke="none" stroke-width="1"/><g id="eDM2da3VXPR198" opacity="0.7"><path id="eDM2da3VXPR199" d="M544,435L448,435L448,441L544,441L544,435Z" opacity="0.5" fill="rgb(255,255,255)" stroke="none" stroke-width="1"/></g><path id="eDM2da3VXPR200" d="M544,463L448,463L448,469L544,469L544,463Z" fill="rgb(255,255,255)" stroke="none" stroke-width="1"/><path id="eDM2da3VXPR201" d="M424.554000,413.157000L424.554000,380.265000L473.977000,380.265000" fill="none" stroke="rgb(0,0,0)" stroke-width="1" stroke-miterlimit="10"/><path id="eDM2da3VXPR202" d="M532.301000,400.368000L532.301000,423.671000L551.789000,423.671000" fill="none" stroke="rgb(0,0,0)" stroke-width="1" stroke-miterlimit="10"/><path id="eDM2da3VXPR203" d="M549.817000,685.148000L549.817000,739.556000L422.583000,739.556000C422.583000,739.556000,410.760000,733.220000,409.694000,713.365000C408.601000,693.004000,421.756000,685.592000,422.547000,685.165000L422.583000,685.148000L549.817000,685.148000Z" fill="rgb(82,210,171)" stroke="none" stroke-width="1"/><path id="eDM2da3VXPR204" d="M614.794000,687.795000L614.794000,736.907000L532.532000,736.907000C532.532000,736.907000,521.864000,731.184000,520.896000,713.267000C519.910000,694.888000,531.786000,688.195000,532.496000,687.813000L532.532000,687.795000L614.794000,687.795000Z" fill="rgb(240,252,248)" stroke="none" stroke-width="1"/><path id="eDM2da3VXPR205" d="M614.794000,699.073000L536.174000,699.073000L536.174000,702.877000L614.794000,702.877000L614.794000,699.073000Z" fill="rgb(58,142,110)" stroke="none" stroke-width="1"/><path id="eDM2da3VXPR206" d="M614.794000,710.449000L536.174000,710.449000L536.174000,714.253000L614.794000,714.253000L614.794000,710.449000Z" fill="rgb(58,142,110)" stroke="none" stroke-width="1"/><path id="eDM2da3VXPR207" d="M614.794000,721.825000L536.174000,721.825000L536.174000,725.629000L614.794000,725.629000L614.794000,721.825000Z" fill="rgb(58,142,110)" stroke="none" stroke-width="1"/><path id="eDM2da3VXPR208" d="M624.165000,739.573000L531.857000,739.573000L531.270000,739.253000C530.782000,738.996000,519.270000,732.597000,518.231000,713.409000C517.147000,693.270000,530.658000,685.769000,531.235000,685.467000L531.892000,685.129000L624.165000,685.129000L624.165000,690.462000L533.251000,690.462000C531.093000,691.848000,522.752000,698.185000,523.551000,713.124000C524.306000,727.158000,531.288000,732.881000,533.287000,734.241000L624.156000,734.241000L624.156000,739.573000L624.165000,739.573000Z" fill="rgb(62,175,137)" stroke="none" stroke-width="1"/><path id="eDM2da3VXPR209" d="M511.596000,685.148000L422.547000,685.165000C422.547000,685.165000,409.517000,692.746000,409.641000,711.765000C409.756000,730.785000,422.592000,739.556000,422.592000,739.556000L444.390000,739.556000" fill="none" stroke="rgb(0,0,0)" stroke-width="1" stroke-miterlimit="10"/><path id="eDM2da3VXPR210" d="M738.929000,178.308000L683.608000,178.308000" fill="none" stroke="rgb(0,0,0)" stroke-width="1" stroke-miterlimit="10"/></svg>